<svg data-name="Layer 1" xmlns="http://www.w3.org/2000/svg" width="1074.392" height="584.231"><rect id="backgroundrect" width="100%" height="100%" x="0" y="0" fill="none" stroke="none"/>
    <title>page not found</title>
    
    
    
    
    
    
    
    
    
    
    
    
    
    
    
    
    
    
    
    
    
    
    
    
    
    
    
    
    
    
    
    
    
    
    
    
    
    
    
    
    
    
    
    
    
    
    
    
    
    
    
    
    
    
    
<g class="currentLayer" style=""><title>Layer 1</title><ellipse cx="541.7072623968124" cy="471.6498107910156" rx="527.5" ry="34.921600341796875" fill="#f2f2f2" id="svg_1" class=""/><path d="M521.4894889593124,89.35014343261719 c-85.9440689086914,0 -147.6510009765625,55.139381408691406 -147.6510009765625,183.79791259765625 c0,145.81300354003906 61.7069091796875,184.4105682373047 147.6510009765625,184.4105682373047 s151.32699584960938,-42.273521423339844 151.32699584960938,-184.4105682373047 C672.8164542913437,121.20848083496094 607.4335807561874,89.35014343261719 521.4894889593124,89.35014343261719 zm0.5649499893188477,319.8083801269531 c-59.526859283447266,0 -90.62592315673828,-34.92287826538086 -90.62592315673828,-135.9163055419922 c0,-89.11184692382812 32.37208938598633,-136.1046142578125 91.89900207519531,-136.1046142578125 s91.89900207519531,30.867740631103516 91.89900207519531,136.1046142578125 C615.2264274358749,371.6895446777344 581.5812858343124,409.1585388183594 522.0544303655624,409.1585388183594 z" fill="#2f2e41" id="svg_2" class=""/><path d="M322.37510907649994,355.8570861816406 H286.84080731868744 V251.21774291992188 A20.95585060119629,20.95585060119629 0 0 0 265.88499677181244,230.26193237304688 h-8.326379776000977 a20.95585060119629,20.95585060119629 0 0 0 -20.955860137939453,20.95585060119629 V355.8570861816406 H136.372682929039 a11.96327018737793,11.96327018737793 0 0 1 -10.577630043029785,-17.552000045776367 l106.0823974609375,-200.78033447265625 A20.95585060119629,20.95585060119629 0 0 0 222.29706037044525,108.78590393066406 l-6.262310028076172,-2.957200050354004 a20.95585060119629,20.95585060119629 0 0 0 -27.42930030822754,9.070050239562988 L59.22398602962494,356.9313049316406 a28.41577911376953,28.41577911376953 0 0 0 -3.355839967727661,13.396120071411133 v0 a28.415830612182617,28.415830612182617 0 0 0 28.41584014892578,28.415830612182617 H236.60275495052338 v66.16726684570312 a25.118999481201172,25.118999481201172 0 0 0 25.118999481201172,25.118999481201172 h0.00004999999873689376 a25.118999481201172,25.118999481201172 0 0 0 25.118999481201172,-25.118999481201172 V398.7433166503906 h35.534278869628906 a21.443069458007812,21.443069458007812 0 0 0 21.443069458007812,-21.443069458007812 v0 A21.443069458007812,21.443069458007812 0 0 0 322.37510907649994,355.8570861816406 z" fill="#6c63ff" id="svg_3" class=""/><path d="M980.3716300725937,355.8570861816406 h-35.534278869628906 V251.21774291992188 A20.95585060119629,20.95585060119629 0 0 0 923.8815177679062,230.26193237304688 h-8.326379776000977 a20.95585060119629,20.95585060119629 0 0 0 -20.955860137939453,20.95585060119629 V355.8570861816406 H794.3691886663437 a11.96325969696045,11.96325969696045 0 0 1 -10.577630043029785,-17.552000045776367 L889.8739494085312,137.5248260498047 A20.955860137939453,20.955860137939453 0 0 0 880.2935661077499,108.78590393066406 l-6.262310028076172,-2.957200050354004 a20.955860137939453,20.955860137939453 0 0 0 -27.429309844970703,9.070050239562988 L717.2205070257187,356.9313049316406 a28.41577911376953,28.41577911376953 0 0 0 -3.355839967727661,13.396120071411133 v0 a28.415830612182617,28.415830612182617 0 0 0 28.415830612182617,28.415830612182617 H894.5992912054062 v66.16726684570312 a25.118999481201172,25.118999481201172 0 0 0 25.118999481201172,25.118999481201172 h0 a25.118999481201172,25.118999481201172 0 0 0 25.118999481201172,-25.118999481201172 V398.7433166503906 h35.534278869628906 a21.443069458007812,21.443069458007812 0 0 0 21.443069458007812,-21.443069458007812 v0 A21.443069458007812,21.443069458007812 0 0 0 980.3716300725937,355.8570861816406 z" fill="#6c63ff" id="svg_4" class=""/><path d="M332.17772138118744,343.6039123535156 H296.64341962337494 V238.96456909179688 a20.95585060119629,20.95585060119629 0 0 0 -20.95585060119629,-20.955860137939453 h-8.326379776000977 a20.955860137939453,20.955860137939453 0 0 0 -20.955860137939453,20.955860137939453 V343.6039123535156 H146.17523419857025 a11.96327018737793,11.96327018737793 0 0 1 -10.577630043029785,-17.552000045776367 L241.67999494075775,125.27165222167969 a20.955860137939453,20.955860137939453 0 0 0 -9.58036994934082,-28.738929748535156 l-6.262310028076172,-2.957200050354004 a20.955860137939453,20.955860137939453 0 0 0 -27.429309844970703,9.069999694824219 L69.02655255794525,344.6781311035156 a28.41581916809082,28.41581916809082 0 0 0 -3.355839967727661,13.396129608154297 v0 a28.415830612182617,28.415830612182617 0 0 0 28.415830612182617,28.415830612182617 H246.40530622005463 v66.16726684570312 a25.118999481201172,25.118999481201172 0 0 0 25.118999481201172,25.118999481201172 h0.00004999999873689376 a25.118999481201172,25.118999481201172 0 0 0 25.118999481201172,-25.118999481201172 V386.4900817871094 h35.5342903137207 a21.443069458007812,21.443069458007812 0 0 0 21.443069458007812,-21.443069458007812 v0 A21.443069458007812,21.443069458007812 0 0 0 332.17772138118744,343.6039123535156 z" fill="none" stroke="#3f3d56" stroke-miterlimit="10" id="svg_5" class=""/><path d="M998.7513908147812,343.6039123535156 h-35.534278869628906 V238.96456909179688 a20.955860137939453,20.955860137939453 0 0 0 -20.955860137939453,-20.955860137939453 H933.9349235296249 a20.955860137939453,20.955860137939453 0 0 0 -20.955860137939453,20.955860137939453 V343.6039123535156 H812.7489494085312 a11.96327018737793,11.96327018737793 0 0 1 -10.577630043029785,-17.552000045776367 L908.2537101507187,125.27165222167969 a20.955860137939453,20.955860137939453 0 0 0 -9.58036994934082,-28.738929748535156 l-6.262310028076172,-2.957200050354004 a20.955860137939453,20.955860137939453 0 0 0 -27.429309844970703,9.069999694824219 L735.6002677679062,344.6781311035156 a28.41581916809082,28.41581916809082 0 0 0 -3.355839967727661,13.396129608154297 v0 a28.415830612182617,28.415830612182617 0 0 0 28.415830612182617,28.415830612182617 H912.9790519475937 v66.16726684570312 a25.118999481201172,25.118999481201172 0 0 0 25.118999481201172,25.118999481201172 h0 a25.118999481201172,25.118999481201172 0 0 0 25.118999481201172,-25.118999481201172 V386.4900817871094 h35.534278869628906 a21.443069458007812,21.443069458007812 0 0 0 21.443069458007812,-21.443069458007812 v0 A21.443069458007812,21.443069458007812 0 0 0 998.7513908147812,343.6039123535156 z" fill="none" stroke="#3f3d56" stroke-miterlimit="10" id="svg_6" class=""/><path d="M541.0945914983749,78.32228088378906 c-85.9440689086914,0 -147.6510009765625,55.13936996459961 -147.6510009765625,183.79791259765625 c0,145.81300354003906 61.7069091796875,184.4105682373047 147.6510009765625,184.4105682373047 s151.32699584960938,-42.273521423339844 151.32699584960938,-184.4105682373047 C692.4215568304062,110.18058776855469 627.0386832952499,78.32228088378906 541.0945914983749,78.32228088378906 zm0.5649999976158142,319.808349609375 c-59.526859283447266,0 -90.62592315673828,-34.92287063598633 -90.62592315673828,-135.91629028320312 c0,-89.11184692382812 32.37208938598633,-136.1046142578125 91.89900207519531,-136.1046142578125 s91.89900207519531,30.867740631103516 91.89900207519531,136.1046142578125 C634.8315299749374,360.6617126464844 601.1864494085312,398.1306457519531 541.6595939397812,398.1306457519531 z" fill="none" stroke="#3f3d56" stroke-miterlimit="10" id="svg_7" class=""/><path d="M1007.9276603460312,341.8900451660156 a20.812519073486328,20.812519073486328 0 1 0 2.7716000080108643,-39.91524124145508 l0.5209299921989441,10.712200164794922 l-5.068140029907227,-9.180450439453125 a20.733999252319336,20.733999252319336 0 0 0 -10.683670043945312,11.722610473632812 a20.408470153808594,20.408470153808594 0 0 0 -1.1971299648284912,5.629859924316406 A20.80855941772461,20.80855941772461 0 0 0 1007.9276603460312,341.8900451660156 z" fill="#57b894" id="svg_27" class=""/><path d="M1033.004991889,466.1334533691406 c-1.7890599966049194,-9.110269546508789 5.9633002281188965,-17.186800003051758 13.62086009979248,-22.43651008605957 s16.604999542236328,-10.407790184020996 19.217750549316406,-19.31683921813965 c3.755000114440918,-12.80387020111084 -7.429999828338623,-24.529809951782227 -16.135639190673828,-34.641761779785156 a125.3004379272461,125.3004379272461 0 0 1 -16.523590087890625,-24.55738067626953 c-1.8110699653625488,-3.5325000286102295 -3.4755799770355225,-7.225279808044434 -3.952209949493408,-11.166259765625 c-0.6864100098609924,-5.675459861755371 1.136929988861084,-11.323089599609375 2.973900079727173,-16.736730575561523 q9.17924976348877,-27.05168914794922 19.628429412841797,-53.65005111694336 " fill="none" stroke="#3f3d56" stroke-miterlimit="10" id="svg_28" class=""/><path d="M1008.7847160100937,339.1321105957031 a20.812519073486328,20.812519073486328 0 1 0 2.7716000080108643,-39.91524124145508 l0.5209299921989441,10.712200164794922 l-5.068150043487549,-9.180450439453125 a20.733999252319336,20.733999252319336 0 0 0 -10.683659553527832,11.722610473632812 a20.408470153808594,20.408470153808594 0 0 0 -1.1971299648284912,5.629859924316406 A20.808549880981445,20.808549880981445 0 0 0 1008.7847160100937,339.1321105957031 z" fill="none" stroke="#3f3d56" stroke-miterlimit="10" id="svg_29" class=""/><path d="M1030.461290717125,279.9285583496094 a20.788190841674805,20.788190841674805 0 0 1 14.97992992401123,-13.197640419006348 l1.713610053062439,10.1837797164917 l3.177000045776367,-10.695659637451172 a20.809999465942383,20.809999465942383 0 1 1 -19.870569229125977,13.70952033996582 z" fill="#57b894" id="svg_30" class=""/><path d="M1031.60411298275,276.2513122558594 a20.78820037841797,20.78820037841797 0 0 1 14.97992992401123,-13.197629928588867 l1.713610053062439,10.1837797164917 l3.177000045776367,-10.695670127868652 a20.809999465942383,20.809999465942383 0 1 1 -19.870569229125977,13.70952033996582 z" fill="none" stroke="#3f3d56" stroke-miterlimit="10" id="svg_31" class=""/><path d="M1046.0546745061874,389.9447326660156 a20.809999465942383,20.809999465942383 0 0 0 18.41900062561035,-37.02267074584961 l-2.4412100315093994,8.219260215759277 l-1.7310500144958496,-10.30381965637207 a0.3618299961090088,0.3618299961090088 0 0 0 -0.05299999937415123,-0.020099999383091927 a20.81113052368164,20.81113052368164 0 1 0 -14.19379997253418,39.1273307800293 z" fill="#57b894" id="svg_32" class=""/><path d="M1047.0449088811874,386.2200622558594 a20.809999465942383,20.809999465942383 0 0 0 18.41900062561035,-37.02267074584961 l-2.4412100315093994,8.219260215759277 l-1.7310500144958496,-10.30381965637207 a0.3621000051498413,0.3621000051498413 0 0 0 -0.05299999937415123,-0.020099999383091927 a20.81113052368164,20.81113052368164 0 1 0 -14.19379997253418,39.1273307800293 z" fill="none" stroke="#3f3d56" stroke-miterlimit="10" id="svg_33" class=""/><path d="M1024.3876212835312,424.5073547363281 a20.80130958557129,20.80130958557129 0 1 0 4.010580062866211,-16.29737091064453 l9.272669792175293,13.95654010772705 l-12.669939994812012,-7.407680034637451 A20.61638069152832,20.61638069152832 0 0 0 1024.3876212835312,424.5073547363281 z" fill="#57b894" id="svg_34" class=""/><path d="M1025.2448600530624,421.7494201660156 a20.80130958557129,20.80130958557129 0 1 0 4.010580062866211,-16.29737091064453 l9.272669792175293,13.956549644470215 l-12.669939994812012,-7.407690048217773 A20.616260528564453,20.616260528564453 0 0 0 1025.2448600530624,421.7494201660156 z" fill="none" stroke="#3f3d56" stroke-miterlimit="10" id="svg_35" class=""/><path d="M10.071291327476501,392.5891418457031 a13.674209594726562,13.674209594726562 0 1 0 1.8209999799728394,-26.225000381469727 l0.34226998686790466,7.03810977935791 l-3.3298699855804443,-6.031720161437988 a13.62263011932373,13.62263011932373 0 0 0 -7.019360065460205,7.702000141143799 a13.408829689025879,13.408829689025879 0 0 0 -0.7865399718284607,3.698930025100708 A13.671600341796875,13.671600341796875 0 0 0 10.071291327476501,392.5891418457031 z" fill="#57b894" id="svg_36" class=""/><path d="M26.547571539878845,474.2193298339844 c-1.1754499673843384,-5.985610008239746 3.9179999828338623,-11.291999816894531 8.949150085449219,-14.74120044708252 s10.90977954864502,-6.838099956512451 12.626420021057129,-12.691510200500488 c2.4671099185943604,-8.41238021850586 -4.881669998168945,-16.11652946472168 -10.601420402526855,-22.760269165039062 A82.32441711425781,82.32441711425781 0 0 1 26.665430426597595,407.8916931152344 a22.209619522094727,22.209619522094727 0 0 1 -2.596679925918579,-7.336430072784424 c-0.45100000500679016,-3.728879928588867 0.746999979019165,-7.439469814300537 1.953909993171692,-10.996339797973633 q6.030930042266846,-17.773460388183594 12.89622974395752,-35.249061584472656 " fill="none" stroke="#3f3d56" stroke-miterlimit="10" id="svg_37" class=""/><path d="M10.634439826011658,390.7771301269531 a13.674200057983398,13.674200057983398 0 1 0 1.8209999799728394,-26.225000381469727 l0.34226998686790466,7.038119792938232 L9.46782910823822,365.5585021972656 a13.62261962890625,13.62261962890625 0 0 0 -7.019360065460205,7.702000141143799 a13.409119606018066,13.409119606018066 0 0 0 -0.7865399718284607,3.6989200115203857 A13.67158031463623,13.67158031463623 0 0 0 10.634439826011658,390.7771301269531 z" fill="none" stroke="#3f3d56" stroke-miterlimit="10" id="svg_38" class=""/><path d="M24.876238226890564,351.8793029785156 a13.658220291137695,13.658220291137695 0 0 1 9.842089653015137,-8.671090126037598 l1.1258699893951416,6.690929889678955 l2.087369918823242,-7.027249813079834 a13.67251968383789,13.67251968383789 0 1 1 -13.055330276489258,9.007410049438477 z" fill="#57b894" id="svg_39" class=""/><path d="M25.627100348472595,349.4632873535156 a13.658220291137695,13.658220291137695 0 0 1 9.842089653015137,-8.671079635620117 l1.1258699893951416,6.690929889678955 L38.68242871761322,340.4559020996094 a13.67251968383789,13.67251968383789 0 1 1 -13.055330276489258,9.007399559020996 z" fill="none" stroke="#3f3d56" stroke-miterlimit="10" id="svg_40" class=""/><path d="M35.12137830257416,424.1619567871094 a13.672550201416016,13.672550201416016 0 0 0 12.101639747619629,-24.324569702148438 l-1.6039199829101562,5.400199890136719 l-1.1373300552368164,-6.769790172576904 a0.23800000548362732,0.23800000548362732 0 0 0 -0.03480000048875809,-0.013199999928474426 a13.673290252685547,13.673290252685547 0 1 0 -9.325590133666992,25.707359313964844 z" fill="#57b894" id="svg_41" class=""/><path d="M35.77196729183197,421.7148132324219 a13.672550201416016,13.672550201416016 0 0 0 12.101639747619629,-24.324569702148438 l-1.6039199829101562,5.400199890136719 l-1.1373300552368164,-6.769800186157227 a0.23800000548362732,0.23800000548362732 0 0 0 -0.03480000048875809,-0.013199999928474426 a13.673290252685547,13.673290252685547 0 1 0 -9.325590133666992,25.70737075805664 z" fill="none" stroke="#3f3d56" stroke-miterlimit="10" id="svg_42" class=""/><path d="M20.885828375816345,446.8702697753906 a13.666839599609375,13.666839599609375 0 1 0 2.634999990463257,-10.707670211791992 l6.092309951782227,9.169710159301758 l-8.324379920959473,-4.867000102996826 A13.545350074768066,13.545350074768066 0 0 0 20.885828375816345,446.8702697753906 z" fill="#57b894" id="svg_43" class=""/><path d="M21.44896161556244,445.0582580566406 a13.666839599609375,13.666839599609375 0 1 0 2.634999990463257,-10.707670211791992 l6.092309951782227,9.169710159301758 l-8.324390411376953,-4.867000102996826 A13.545350074768066,13.545350074768066 0 0 0 21.44896161556244,445.0582580566406 z" fill="none" stroke="#3f3d56" stroke-miterlimit="10" id="svg_44" class=""/></g></svg>